<svg width="309" height="195" viewBox="0 0 309 195" fill="none" xmlns="http://www.w3.org/2000/svg">
<path d="M249.634 0C282.494 0 308.218 26.1584 308.218 59.574C308.218 100.464 272.003 133.881 217.148 184.519L209.765 191.33C205.212 195.528 198.196 195.528 193.644 191.33L186.26 184.519C131.406 133.881 95.1908 100.464 95.1908 59.574C95.191 26.1584 120.915 0 153.774 0C174.712 0.000126818 190.44 8.28135 201.213 23.1408C212.823 9.33177 231.102 0.000547956 249.634 0ZM249.634 8.91579C233.955 8.91635 218.098 16.9091 208.035 28.8796L200.69 37.6135L193.992 28.3765C184.974 15.9381 171.99 8.91591 153.774 8.91579C125.979 8.91579 104.107 30.9408 104.107 59.574C104.107 77.1376 111.806 93.7724 127.104 112.806C142.507 131.968 164.703 152.484 192.305 177.964L199.688 184.774C200.826 185.824 202.582 185.824 203.72 184.774L211.104 177.964C238.705 152.484 260.902 131.968 276.304 112.806C291.603 93.7724 299.302 77.1376 299.302 59.574C299.302 30.9408 277.429 8.91579 249.634 8.91579Z" fill="#262626"/>
<path d="M154.444 0C187.303 0 213.027 26.1584 213.027 59.574C213.027 100.464 176.812 133.881 121.957 184.519L114.574 191.33C110.021 195.528 103.006 195.528 98.4529 191.33L91.0695 184.519C36.2148 133.881 0 100.464 0 59.574C0.000190063 26.1584 25.724 0 58.5834 0C77.1166 0.000227017 95.8633 8.83523 107.473 22.6455C118.618 7.66367 135.912 0.000449996 154.444 0ZM154.444 8.91579C138.39 8.91624 123.893 15.5053 114.624 27.9663L107.899 37.0098L100.647 28.3843C90.7329 16.5911 74.4867 8.91602 58.5834 8.91579C30.7885 8.91579 8.91598 30.9408 8.91579 59.574C8.91579 77.1376 16.6151 93.7724 31.9134 112.806C47.3157 131.968 69.5124 152.484 97.114 177.964L104.497 184.774C105.636 185.824 107.391 185.824 108.53 184.774L115.913 177.964C143.515 152.484 165.711 131.968 181.114 112.806C196.412 93.7724 204.111 77.1376 204.111 59.574C204.111 30.9408 182.238 8.91579 154.444 8.91579Z" fill="#262626"/>
</svg>
