<svg width="10" height="15" viewBox="0 0 10 15" fill="none" xmlns="http://www.w3.org/2000/svg">
<path d="M3.0375 7.16478L9.4125 12.5305C9.654 12.7339 9.77062 12.9795 9.76237 13.2671C9.75412 13.5546 9.62912 13.8 9.38737 14.0035C9.14562 14.207 8.84975 14.3087 8.49975 14.3087C8.14975 14.3087 7.854 14.207 7.6125 14.0035L0.362249 7.90145C0.228999 7.78909 0.135249 7.67336 0.080999 7.55426C0.026999 7.43495 0 7.30513 0 7.16478C0 7.02464 0.026999 6.89491 0.080999 6.77561C0.135249 6.6563 0.228999 6.54057 0.362249 6.42841L7.63725 0.305213C7.879 0.101737 8.17487 0 8.52487 0C8.87487 0 9.17075 0.101737 9.4125 0.305213C9.654 0.508688 9.77475 0.757719 9.77475 1.05231C9.77475 1.34689 9.654 1.59582 9.4125 1.79908L3.0375 7.16478Z" fill="#262626"/>
</svg>
