<svg width="33" height="21" viewBox="0 0 33 21" fill="none" xmlns="http://www.w3.org/2000/svg">
<path d="M26.6401 0.625C29.7402 0.625125 32.1753 3.08628 32.1753 6.26465C32.1752 8.21232 31.318 10.0297 29.688 12.0576C28.0507 14.0947 25.6964 16.2689 22.8003 18.9424C22.1223 19.5677 21.0779 19.5677 20.3999 18.9424H20.3989C17.5031 16.2691 15.1495 14.0945 13.5122 12.0576C11.8822 10.0297 11.025 8.21232 11.0249 6.26465C11.0249 3.0862 13.4599 0.625 16.5601 0.625C18.3158 0.62505 20.014 1.45984 21.1216 2.77734L21.6001 3.3457L22.0786 2.77734C23.1862 1.4598 24.8844 0.625 26.6401 0.625Z" stroke="#1F1F1F" stroke-width="1.25"/>
<path d="M16.2402 0.625C19.3403 0.625125 21.7754 3.08628 21.7754 6.26465C21.7753 8.21232 20.9181 10.0297 19.2881 12.0576C17.6508 14.0947 15.2965 16.2689 12.4004 18.9424C11.7224 19.5677 10.678 19.5677 10 18.9424H9.99902C7.10318 16.2691 4.74957 14.0945 3.1123 12.0576C1.48232 10.0297 0.625108 8.21232 0.625 6.26465C0.625 3.0862 3.05998 0.625 6.16016 0.625C7.91587 0.62505 9.61409 1.45984 10.7217 2.77734L11.2002 3.3457L11.6787 2.77734C12.7863 1.4598 14.4845 0.625 16.2402 0.625Z" stroke="#1F1F1F" stroke-width="1.25"/>
</svg>
