<svg width="78" height="51" viewBox="0 0 78 51" fill="none" xmlns="http://www.w3.org/2000/svg">
<path d="M62.998 1.125C70.6514 1.125 76.6572 7.20481 76.6572 15.0342C76.6572 19.8301 74.5434 24.2735 70.6055 29.1729C67.1482 33.4741 62.3718 38.0233 56.5801 43.3877L54.0371 45.7383L52.1738 47.457C51.4558 48.1193 50.3489 48.1193 49.6309 47.457L47.7676 45.7383C40.824 39.3285 35.1503 34.0885 31.1992 29.1729C27.2613 24.2735 25.1475 19.8301 25.1475 15.0342C25.1475 7.32704 30.967 1.31573 38.4492 1.12988L38.8066 1.125C43.7471 1.12503 47.37 3.05651 49.8672 6.50098L50.7119 7.66602L51.6387 6.56445C54.3734 3.31145 58.6811 1.12514 62.998 1.125Z" stroke="#262626" stroke-width="2.25"/>
<path d="M38.9756 1.125C46.629 1.125 52.6347 7.20481 52.6348 15.0342C52.6348 19.8301 50.521 24.2735 46.583 29.1729C43.1258 33.4741 38.3493 38.0233 32.5576 43.3877L30.0146 45.7383L28.1514 47.457C27.4333 48.1193 26.3265 48.1193 25.6084 47.457L23.7451 45.7383C16.8016 39.3285 11.1278 34.0885 7.17676 29.1729C3.23881 24.2735 1.125 19.8301 1.125 15.0342C1.12505 7.20481 7.13078 1.125 14.7842 1.125C19.1294 1.12506 23.5448 3.20881 26.2607 6.43945L27.1758 7.52734L28.0244 6.38672C30.6002 2.92375 34.6114 1.12511 38.9756 1.125Z" stroke="#262626" stroke-width="2.25"/>
</svg>
