<svg width="303" height="133" viewBox="0 0 303 133" fill="none" xmlns="http://www.w3.org/2000/svg">
<line y1="130.499" x2="303" y2="130.499" stroke="#CAD1BF" stroke-opacity="0.7"/>
<line y1="99.4338" x2="303" y2="99.4338" stroke="#CAD1BF" stroke-opacity="0.7"/>
<line y1="68.3687" x2="303" y2="68.3687" stroke="#CAD1BF" stroke-opacity="0.7"/>
<line y1="6.23828" x2="303" y2="6.23828" stroke="#CAD1BF" stroke-opacity="0.7"/>
<line y1="37.3035" x2="303" y2="37.3035" stroke="#CAD1BF" stroke-opacity="0.7"/>
<path d="M139.64 131C137.96 126.08 136.22 121.22 134.42 116.42C132.62 111.62 130.88 106.7 129.2 101.66H76.6404C74.9604 106.7 73.2204 111.68 71.4204 116.6C69.7404 121.4 68.0604 126.2 66.3804 131H42.8004C47.4804 117.68 51.9204 105.38 56.1204 94.1C60.3204 82.82 64.4004 72.14 68.3604 62.06C72.4404 51.98 76.4604 42.38 80.4204 33.26C84.3804 24.14 88.4604 15.14 92.6604 6.26H114.08C118.28 15.14 122.36 24.14 126.32 33.26C130.28 42.38 134.24 51.98 138.2 62.06C142.28 72.14 146.42 82.82 150.62 94.1C154.94 105.38 159.44 117.68 164.12 131H139.64ZM102.92 30.38C100.16 36.74 96.9804 44.48 93.3804 53.6C89.9004 62.72 86.2404 72.62 82.4004 83.3H123.44C119.6 72.62 115.88 62.66 112.28 53.42C108.68 44.18 105.56 36.5 102.92 30.38ZM211.927 115.7C218.647 115.7 223.747 115.34 227.227 114.62V90.5C226.027 90.14 224.287 89.78 222.007 89.42C219.727 89.06 217.207 88.88 214.447 88.88C212.047 88.88 209.587 89.06 207.067 89.42C204.667 89.78 202.447 90.44 200.407 91.4C198.487 92.36 196.927 93.74 195.727 95.54C194.527 97.22 193.927 99.38 193.927 102.02C193.927 107.18 195.547 110.78 198.787 112.82C202.027 114.74 206.407 115.7 211.927 115.7ZM210.127 34.52C217.327 34.52 223.387 35.42 228.307 37.22C233.227 39.02 237.127 41.54 240.007 44.78C243.007 48.02 245.107 51.98 246.307 56.66C247.627 61.22 248.287 66.26 248.287 71.78V128.84C244.927 129.56 239.827 130.4 232.987 131.36C226.267 132.44 218.647 132.98 210.127 132.98C204.487 132.98 199.327 132.44 194.647 131.36C189.967 130.28 185.947 128.54 182.587 126.14C179.347 123.74 176.767 120.62 174.847 116.78C173.047 112.94 172.147 108.2 172.147 102.56C172.147 97.16 173.167 92.6 175.207 88.88C177.367 85.16 180.247 82.16 183.847 79.88C187.447 77.48 191.587 75.8 196.267 74.84C201.067 73.76 206.047 73.22 211.207 73.22C213.607 73.22 216.127 73.4 218.767 73.76C221.407 74 224.227 74.48 227.227 75.2V71.6C227.227 69.08 226.927 66.68 226.327 64.4C225.727 62.12 224.647 60.14 223.087 58.46C221.647 56.66 219.667 55.28 217.147 54.32C214.747 53.36 211.687 52.88 207.967 52.88C202.927 52.88 198.307 53.24 194.107 53.96C189.907 54.68 186.487 55.52 183.847 56.48L181.147 38.84C183.907 37.88 187.927 36.92 193.207 35.96C198.487 35 204.127 34.52 210.127 34.52Z" fill="white"/>
</svg>
