<svg width="106" height="24" viewBox="0 0 106 24" fill="none" xmlns="http://www.w3.org/2000/svg">
<path d="M78.9116 22.9073C78.6099 22.9074 78.3657 23.1525 78.3657 23.4542C78.3659 23.7558 78.61 24 78.9116 24.0001C79.2133 24.0001 79.4583 23.7558 79.4585 23.4542C79.4585 23.1525 79.2134 22.9073 78.9116 22.9073ZM81.5845 22.6915C81.3421 22.6916 81.146 22.8885 81.146 23.131C81.1462 23.3732 81.3422 23.5693 81.5845 23.5694C81.8268 23.5694 82.0237 23.3733 82.0239 23.131C82.0239 22.8885 81.8269 22.6915 81.5845 22.6915ZM76.1567 22.6915C75.9145 22.6918 75.7183 22.8886 75.7183 23.131C75.7185 23.3731 75.9146 23.5692 76.1567 23.5694C76.3991 23.5694 76.596 23.3733 76.5962 23.131C76.5962 22.8885 76.3992 22.6915 76.1567 22.6915ZM80.4624 21.1671C79.994 21.1672 79.6139 21.5473 79.6138 22.0157C79.6138 22.4843 79.9939 22.8643 80.4624 22.8644C80.931 22.8644 81.311 22.4843 81.311 22.0157C81.3109 21.5473 80.9309 21.1671 80.4624 21.1671ZM77.3433 21.1671C76.875 21.1673 76.4957 21.5474 76.4956 22.0157C76.4956 22.4842 76.8749 22.8641 77.3433 22.8644C77.8118 22.8644 78.1919 22.4843 78.1919 22.0157C78.1918 21.5473 77.8118 21.1671 77.3433 21.1671ZM83.4399 21.4708C83.1391 21.471 82.8951 21.7149 82.895 22.0157C82.895 22.3167 83.139 22.5605 83.4399 22.5607C83.741 22.5607 83.9849 22.3168 83.9849 22.0157C83.9847 21.7148 83.7409 21.4708 83.4399 21.4708ZM74.3657 21.4708C74.0648 21.4708 73.8209 21.7148 73.8208 22.0157C73.8208 22.3168 74.0647 22.5606 74.3657 22.5607C74.6668 22.5607 74.9106 22.3168 74.9106 22.0157C74.9105 21.7148 74.6667 21.4708 74.3657 21.4708ZM81.9243 19.4913C81.3877 19.4914 80.9527 19.9263 80.9526 20.463C80.9526 20.9997 81.3876 21.4346 81.9243 21.4347C82.4611 21.4347 82.896 20.9998 82.896 20.463C82.8959 19.9263 82.461 19.4913 81.9243 19.4913ZM78.9106 19.4913C78.3741 19.4915 77.939 19.9264 77.939 20.463C77.939 20.9997 78.3741 21.4345 78.9106 21.4347C79.4474 21.4347 79.8833 20.9998 79.8833 20.463C79.8832 19.9263 79.4474 19.4913 78.9106 19.4913ZM75.8989 19.4913C75.3624 19.4915 74.9273 19.9264 74.9272 20.463C74.9272 20.9996 75.3623 21.4345 75.8989 21.4347C76.4357 21.4347 76.8716 20.9998 76.8716 20.463C76.8715 19.9263 76.4356 19.4913 75.8989 19.4913ZM84.9819 19.7735C84.6013 19.7735 84.2926 20.0824 84.2925 20.463C84.2925 20.8437 84.6013 21.1525 84.9819 21.1525C85.3624 21.1522 85.6704 20.8435 85.6704 20.463C85.6703 20.0826 85.3623 19.7738 84.9819 19.7735ZM72.8413 19.7735C72.4609 19.7738 72.1529 20.0825 72.1528 20.463C72.1528 20.8436 72.4608 21.1522 72.8413 21.1525C73.222 21.1525 73.5308 20.8437 73.5308 20.463C73.5307 20.0824 73.2219 19.7735 72.8413 19.7735ZM77.3433 8.47569C76.7312 8.47569 76.2349 8.97201 76.2349 9.58409C76.2349 9.7589 76.277 9.92339 76.3491 10.0704C76.1958 9.99833 76.0249 9.95717 75.8442 9.95714C75.6385 9.95714 75.4447 10.0097 75.2759 10.1017C75.3671 9.94781 75.4194 9.76814 75.4194 9.57628C75.4193 9.00682 74.9576 8.54503 74.3882 8.54503C73.8189 8.54523 73.357 9.00694 73.3569 9.57628C73.3569 10.1457 73.8188 10.6073 74.3882 10.6075C74.5534 10.6075 74.7097 10.5682 74.8481 10.4991C74.7267 10.6856 74.6548 10.9075 74.6548 11.1466C74.6548 11.3456 74.7051 11.5325 74.7915 11.6974C74.6617 11.6419 74.5187 11.6115 74.3687 11.6114C73.7735 11.6114 73.2905 12.0944 73.2905 12.6896C73.2907 13.2846 73.7736 13.7667 74.3687 13.7667C74.5681 13.7667 74.7543 13.7118 74.9146 13.6173C74.7959 13.7986 74.7261 14.0153 74.7261 14.2482C74.7261 14.4715 74.7919 14.6789 74.9019 14.8556C74.7446 14.7658 74.5627 14.714 74.3687 14.714C73.7735 14.714 73.2905 15.1969 73.2905 15.7921C73.2905 16.3873 73.7735 16.8702 74.3687 16.8702C74.5539 16.8702 74.7281 16.8227 74.8804 16.7403C74.7833 16.9093 74.7261 17.1047 74.7261 17.3136C74.7261 17.9504 75.2427 18.4667 75.8794 18.4669C76.1246 18.4669 76.3517 18.3894 76.5386 18.2589C76.4126 18.4373 76.3384 18.6547 76.3384 18.8898C76.3384 19.4949 76.8289 19.9855 77.4341 19.9855C78.0391 19.9853 78.5298 19.4948 78.5298 18.8898C78.5297 18.741 78.4996 18.5992 78.4458 18.4698C78.5837 18.526 78.7341 18.5577 78.8921 18.5577C79.0547 18.5577 79.21 18.5251 79.3511 18.4659C79.2962 18.5964 79.2652 18.7393 79.2651 18.8898C79.2651 19.4949 79.7557 19.9855 80.3608 19.9855C80.9658 19.9852 81.4565 19.4948 81.4565 18.8898C81.4565 18.6314 81.3659 18.3944 81.2163 18.2071C81.4148 18.369 81.6677 18.4668 81.9438 18.4669C82.5808 18.4669 83.0971 17.9505 83.0972 17.3136C83.0972 17.1061 83.0426 16.9115 82.9468 16.7433C83.0973 16.8232 83.2684 16.8702 83.4507 16.8702C84.0459 16.8702 84.5288 16.3873 84.5288 15.7921C84.5288 15.1969 84.0459 14.714 83.4507 14.714C83.2603 14.714 83.0815 14.764 82.9263 14.8507C83.0342 14.6752 83.0971 14.4693 83.0972 14.2482C83.0972 14.0171 83.0296 13.8016 82.9126 13.6212C83.0711 13.713 83.2544 13.7667 83.4507 13.7667C84.0458 13.7667 84.5287 13.2846 84.5288 12.6896C84.5288 12.0944 84.0459 11.6114 83.4507 11.6114C83.283 11.6115 83.1244 11.6505 82.9829 11.7189C83.0764 11.549 83.1304 11.3542 83.1304 11.1466C83.1304 10.9053 83.0585 10.6808 82.9351 10.4933C83.076 10.5656 83.2355 10.6075 83.4048 10.6075C83.9742 10.6073 84.436 10.1457 84.436 9.57628C84.4359 9.00693 83.9741 8.54521 83.4048 8.54503C82.8353 8.54503 82.3736 9.00682 82.3735 9.57628C82.3735 9.77131 82.4289 9.95297 82.5229 10.1085C82.351 10.0119 82.1521 9.95714 81.9409 9.95714C81.7783 9.95717 81.6231 9.9898 81.4819 10.0489C81.5476 9.90742 81.5854 9.75033 81.5854 9.58409C81.5854 8.97201 81.0891 8.47569 80.4771 8.47569C79.8651 8.47581 79.3687 8.97208 79.3687 9.58409C79.3687 9.72119 79.3964 9.85158 79.4419 9.97276C79.2777 9.88681 79.0903 9.838 78.8921 9.838C78.7113 9.83807 78.5405 9.87988 78.3872 9.95226C78.4279 9.83696 78.4507 9.7133 78.4507 9.58409C78.4507 8.97212 77.9552 8.47588 77.3433 8.47569ZM83.4468 17.881C82.9007 17.881 82.4576 18.3232 82.4575 18.8692C82.4575 19.4154 82.9006 19.8585 83.4468 19.8585C83.9929 19.8585 84.436 19.4154 84.436 18.8692C84.4359 18.3232 83.9929 17.881 83.4468 17.881ZM74.3462 17.881C73.8002 17.881 73.358 18.3232 73.3579 18.8692C73.3579 19.4154 73.8001 19.8584 74.3462 19.8585C74.8923 19.8585 75.3354 19.4154 75.3354 18.8692C75.3353 18.3232 74.8923 17.881 74.3462 17.881ZM86.4546 18.3448C86.1537 18.345 85.9098 18.5889 85.9097 18.8898C85.9097 19.1907 86.1537 19.4345 86.4546 19.4347C86.7556 19.4347 86.9995 19.1908 86.9995 18.8898C86.9994 18.5888 86.7556 18.3448 86.4546 18.3448ZM71.3394 18.3448C71.0384 18.3448 70.7946 18.5888 70.7944 18.8898C70.7944 19.1908 71.0383 19.4347 71.3394 19.4347C71.6404 19.4347 71.8843 19.1908 71.8843 18.8898C71.8842 18.5888 71.6403 18.3448 71.3394 18.3448ZM84.9224 16.3956C84.405 16.3956 83.9858 16.8158 83.9858 17.3331C83.986 17.8503 84.4052 18.2696 84.9224 18.2696C85.4396 18.2696 85.8587 17.8503 85.8589 17.3331C85.8589 16.8158 85.4397 16.3956 84.9224 16.3956ZM72.8208 16.3956C72.3036 16.3958 71.8843 16.8159 71.8843 17.3331C71.8844 17.8502 72.3037 18.2695 72.8208 18.2696C73.338 18.2696 73.7572 17.8503 73.7573 17.3331C73.7573 16.8158 73.3381 16.3956 72.8208 16.3956ZM80.0171 16.9933C80.1586 17.0529 80.3139 17.087 80.4771 17.087C80.5989 17.087 80.716 17.0675 80.8267 17.0333C80.8042 17.1231 80.7905 17.2168 80.7905 17.3136C80.7906 17.5871 80.8873 17.8376 81.0464 18.0353C80.8587 17.8845 80.6203 17.7941 80.3608 17.7941C80.2233 17.7941 80.0915 17.8201 79.9702 17.8663C80.0395 17.7157 80.0786 17.5479 80.0786 17.3712C80.0786 17.239 80.057 17.112 80.0171 16.9933ZM77.7632 17.0079C77.7263 17.1224 77.7066 17.2445 77.7065 17.3712C77.7065 17.5468 77.7455 17.7135 77.814 17.8634C77.6955 17.8195 77.5678 17.7941 77.4341 17.7941C77.2053 17.7941 76.9926 17.8646 76.8169 17.9845C76.9525 17.7954 77.0327 17.5641 77.0327 17.3136C77.0327 17.2172 77.0198 17.1238 76.9976 17.0343C77.107 17.0676 77.2229 17.087 77.3433 17.087C77.4914 17.087 77.6324 17.0576 77.7632 17.0079ZM87.6118 16.5216C87.3694 16.5216 87.1724 16.7186 87.1724 16.961C87.1725 17.2034 87.3695 17.3995 87.6118 17.3995C87.8542 17.3995 88.0511 17.2034 88.0513 16.961C88.0513 16.7186 87.8543 16.5216 87.6118 16.5216ZM70.2036 16.5216C69.9612 16.5216 69.7642 16.7186 69.7642 16.961C69.7643 17.2034 69.9613 17.3995 70.2036 17.3995C70.446 17.3995 70.6429 17.2034 70.6431 16.961C70.6431 16.7186 70.4461 16.5216 70.2036 16.5216ZM86.4399 15.005C86.0131 15.005 85.6666 15.3506 85.6665 15.7775C85.6665 16.2044 86.013 16.5509 86.4399 16.5509C86.8669 16.5509 87.2134 16.2044 87.2134 15.7775C87.2133 15.3506 86.8668 15.005 86.4399 15.005ZM71.3794 15.005C70.9525 15.005 70.606 15.3506 70.606 15.7775C70.606 16.2044 70.9525 16.5509 71.3794 16.5509C71.8063 16.5509 72.1519 16.2044 72.1519 15.7775C72.1518 15.3506 71.8062 15.005 71.3794 15.005ZM75.2925 15.2384C75.4646 15.3407 75.6646 15.4014 75.8794 15.4015C76.0324 15.4015 76.1784 15.3706 76.312 15.3165C76.2141 15.4891 76.1568 15.6879 76.1567 15.9005C76.1567 16.006 76.1729 16.1078 76.1987 16.2052C76.0974 16.1761 75.9901 16.1603 75.8794 16.1603C75.6738 16.1603 75.4811 16.2144 75.314 16.3087C75.398 16.1553 75.4458 15.9794 75.4458 15.7921C75.4458 15.5895 75.3897 15.4003 75.2925 15.2384ZM82.5249 15.2423C82.4291 15.4034 82.3735 15.5911 82.3735 15.7921C82.3735 15.9775 82.421 16.1515 82.5034 16.3038C82.3379 16.2119 82.1466 16.1603 81.9438 16.1603C81.8323 16.1603 81.7246 16.1766 81.6226 16.2062C81.6485 16.1086 81.6626 16.0062 81.6626 15.9005C81.6626 15.6874 81.6067 15.4874 81.5083 15.3146C81.6428 15.3696 81.7895 15.4014 81.9438 15.4015C82.156 15.4015 82.3541 15.3422 82.5249 15.2423ZM79.5171 15.2052C79.3752 15.4007 79.2906 15.6405 79.2905 15.9005C79.2905 16.0325 79.3142 16.1589 79.354 16.2775C79.2123 16.2176 79.0556 16.1857 78.8921 16.1857C78.7445 16.1857 78.6035 16.2135 78.4731 16.2628C78.5097 16.1486 78.5298 16.0268 78.5298 15.9005C78.5298 15.6571 78.4564 15.4306 78.3306 15.2423C78.4978 15.3325 78.6888 15.3848 78.8921 15.3849C79.1216 15.3849 79.3355 15.318 79.5171 15.2052ZM84.9224 13.3028C84.4052 13.3028 83.986 13.7222 83.9858 14.2394C83.9858 14.7567 84.405 15.1769 84.9224 15.1769C85.4397 15.1769 85.8589 14.7567 85.8589 14.2394C85.8587 13.7222 85.4396 13.3028 84.9224 13.3028ZM72.8413 13.3028C72.3241 13.3028 71.905 13.7222 71.9048 14.2394C71.9048 14.7567 72.324 15.1769 72.8413 15.1769C73.3586 15.1768 73.7778 14.7567 73.7778 14.2394C73.7776 13.7222 73.3585 13.3029 72.8413 13.3028ZM79.9028 13.5773C80.073 13.6716 80.2687 13.7257 80.4771 13.7257C80.6582 13.7256 80.8293 13.6841 80.9829 13.6114C80.8619 13.7939 80.7905 14.0128 80.7905 14.2482C80.7906 14.451 80.8441 14.6412 80.936 14.8067C80.7948 14.7474 80.6398 14.714 80.4771 14.714C80.248 14.714 80.0344 14.7802 79.853 14.8927C79.9945 14.6974 80.0786 14.4579 80.0786 14.1983C80.0786 13.9706 80.0141 13.7579 79.9028 13.5773ZM77.8677 13.6026C77.7657 13.7778 77.7065 13.9811 77.7065 14.1983C77.7066 14.4416 77.7801 14.6674 77.9058 14.8556C77.7384 14.7653 77.5467 14.714 77.3433 14.714C77.1828 14.714 77.0297 14.7461 76.8901 14.8038C76.981 14.639 77.0327 14.4497 77.0327 14.2482C77.0327 14.0142 76.9639 13.7962 76.8442 13.6144C76.9961 13.685 77.1647 13.7257 77.3433 13.7257C77.5318 13.7257 77.7094 13.6809 77.8677 13.6026ZM87.9849 13.7345C87.7013 13.7346 87.4712 13.9645 87.4712 14.2482C87.4713 14.5317 87.7013 14.7617 87.9849 14.7618C88.2685 14.7618 88.4984 14.5318 88.4985 14.2482C88.4985 13.9645 88.2686 13.7345 87.9849 13.7345ZM69.8345 13.7345C69.5508 13.7345 69.3208 13.9645 69.3208 14.2482C69.3209 14.5318 69.5509 14.7618 69.8345 14.7618C70.1181 14.7618 70.348 14.5317 70.3481 14.2482C70.3481 13.9645 70.1181 13.7345 69.8345 13.7345ZM71.3081 11.8409C70.8395 11.8409 70.4595 12.221 70.4595 12.6896C70.4596 13.158 70.8396 13.5382 71.3081 13.5382C71.7766 13.5382 72.1566 13.158 72.1567 12.6896C72.1567 12.221 71.7767 11.8409 71.3081 11.8409ZM86.4546 11.8067C85.9862 11.807 85.607 12.187 85.6069 12.6554C85.6069 13.1238 85.9862 13.5038 86.4546 13.504C86.9232 13.504 87.3032 13.124 87.3032 12.6554C87.3032 12.1868 86.9231 11.8067 86.4546 11.8067ZM75.3394 12.2218C75.4927 12.2939 75.6635 12.336 75.8442 12.336C75.9631 12.336 76.0777 12.3177 76.186 12.2853C76.1681 12.3673 76.1567 12.4527 76.1567 12.5401C76.1568 12.7843 76.2314 13.0107 76.3579 13.1993C76.2121 13.1328 76.0501 13.0948 75.8794 13.0948C75.6593 13.0949 75.4538 13.1567 75.2788 13.2638C75.384 13.0974 75.4457 12.901 75.4458 12.6896C75.4458 12.522 75.4076 12.3632 75.3394 12.2218ZM82.4917 12.2003C82.4167 12.3472 82.3735 12.5133 82.3735 12.6896C82.3736 12.8994 82.4348 13.0943 82.5386 13.2599C82.365 13.1552 82.1613 13.0948 81.9438 13.0948C81.7714 13.0949 81.6083 13.1334 81.4614 13.2013C81.5886 13.0124 81.6625 12.7849 81.6626 12.5401C81.6626 12.4563 81.6547 12.374 81.6382 12.295C81.735 12.3205 81.8361 12.336 81.9409 12.336C82.1397 12.336 82.327 12.2865 82.4917 12.2003ZM79.3726 12.1075C79.3201 12.2415 79.2905 12.3875 79.2905 12.5401C79.2906 12.7683 79.3566 12.9804 79.4683 13.1612C79.2977 13.0663 79.1011 13.0118 78.8921 13.0118C78.704 13.0119 78.5266 13.0569 78.3687 13.1349C78.4704 12.96 78.5297 12.7571 78.5298 12.5401C78.5298 12.3941 78.5019 12.2543 78.4536 12.1251C78.5894 12.1793 78.7369 12.211 78.8921 12.211C79.0632 12.211 79.2256 12.1728 79.3726 12.1075ZM84.9224 10.2101C84.405 10.2101 83.9858 10.6293 83.9858 11.1466C83.9858 11.6639 84.405 12.0831 84.9224 12.0831C85.4397 12.0831 85.8589 11.6639 85.8589 11.1466C85.8589 10.6293 85.4397 10.2101 84.9224 10.2101ZM72.8003 10.2101C72.2831 10.2102 71.8638 10.6294 71.8638 11.1466C71.8638 11.6638 72.2831 12.0829 72.8003 12.0831C73.3176 12.0831 73.7368 11.6639 73.7368 11.1466C73.7368 10.6293 73.3176 10.2101 72.8003 10.2101ZM87.6118 11.0245C87.3694 11.0245 87.1724 11.2215 87.1724 11.464C87.1726 11.7063 87.3695 11.9024 87.6118 11.9025C87.8542 11.9025 88.0511 11.7063 88.0513 11.464C88.0513 11.2215 87.8543 11.0245 87.6118 11.0245ZM70.2036 11.0245C69.9612 11.0246 69.7642 11.2215 69.7642 11.464C69.7644 11.7063 69.9613 11.9024 70.2036 11.9025C70.446 11.9025 70.6429 11.7063 70.6431 11.464C70.6431 11.2215 70.4461 11.0245 70.2036 11.0245ZM79.9927 10.5782C80.1393 10.6498 80.303 10.6925 80.4771 10.6925C80.6191 10.6925 80.7546 10.664 80.8794 10.6153C80.7991 10.7755 80.7524 10.9553 80.7524 11.1466C80.7524 11.231 80.7611 11.3133 80.7778 11.3927C80.6817 11.3675 80.581 11.3537 80.4771 11.3536C80.3065 11.3536 80.1441 11.3894 79.9976 11.4542C80.0494 11.3209 80.0786 11.1762 80.0786 11.0245C80.0786 10.8668 80.0486 10.7159 79.9927 10.5782ZM76.8999 10.5978C77.0358 10.6572 77.1854 10.6925 77.3433 10.6925C77.501 10.6924 77.6508 10.6582 77.7866 10.5987C77.7357 10.731 77.7065 10.8743 77.7065 11.0245C77.7065 11.17 77.7338 11.3088 77.7817 11.4376C77.6461 11.3836 77.4982 11.3536 77.3433 11.3536C77.2259 11.3536 77.1125 11.3707 77.0054 11.4025C77.0234 11.32 77.0327 11.2344 77.0327 11.1466C77.0327 10.9487 76.9854 10.7619 76.8999 10.5978ZM86.4546 9.03136C86.1537 9.0315 85.9098 9.27538 85.9097 9.57628C85.9097 9.87726 86.1537 10.1211 86.4546 10.1212C86.7556 10.1212 86.9995 9.87735 86.9995 9.57628C86.9994 9.27529 86.7556 9.03136 86.4546 9.03136ZM71.3394 9.03136C71.0384 9.03137 70.7945 9.2753 70.7944 9.57628C70.7944 9.87734 71.0383 10.1212 71.3394 10.1212C71.6404 10.1212 71.8843 9.87735 71.8843 9.57628C71.8842 9.27529 71.6404 9.03136 71.3394 9.03136ZM78.9106 7.15245C78.3741 7.15266 77.939 7.58752 77.939 8.12413C77.939 8.66078 78.3741 9.0956 78.9106 9.09581C79.4474 9.09581 79.8833 8.66092 79.8833 8.12413C79.8833 7.58739 79.4474 7.15245 78.9106 7.15245ZM81.9448 7.15245C81.439 7.15245 81.0288 7.56262 81.0288 8.06847C81.0289 8.5742 81.4391 8.98448 81.9448 8.98448C82.4504 8.98428 82.8597 8.57407 82.8599 8.06847C82.8599 7.56274 82.4505 7.15266 81.9448 7.15245ZM75.8794 7.15245C75.3737 7.15255 74.9634 7.56268 74.9634 8.06847C74.9635 8.57414 75.3737 8.98438 75.8794 8.98448C76.3851 8.98448 76.7953 8.5742 76.7954 8.06847C76.7954 7.56262 76.3852 7.15245 75.8794 7.15245ZM84.9819 7.34288C84.6013 7.34288 84.2925 7.65164 84.2925 8.03233C84.2927 8.41285 84.6014 8.72081 84.9819 8.72081C85.3623 8.72055 85.6702 8.41269 85.6704 8.03233C85.6704 7.6518 85.3624 7.34314 84.9819 7.34288ZM72.8413 7.34288C72.4608 7.34309 72.1528 7.65177 72.1528 8.03233C72.153 8.41272 72.4609 8.7206 72.8413 8.72081C73.2219 8.72081 73.5306 8.41285 73.5308 8.03233C73.5308 7.65164 73.222 7.34288 72.8413 7.34288ZM80.4624 5.64561C79.9939 5.64568 79.6138 6.02569 79.6138 6.49425C79.6138 6.96279 79.9939 7.34282 80.4624 7.34288C80.931 7.34288 81.311 6.96283 81.311 6.49425C81.311 6.02566 80.931 5.64561 80.4624 5.64561ZM77.3433 5.64561C76.8749 5.64583 76.4956 6.02579 76.4956 6.49425C76.4956 6.96269 76.8749 7.34266 77.3433 7.34288C77.8118 7.34288 78.1919 6.96283 78.1919 6.49425C78.1919 6.02566 77.8118 5.64561 77.3433 5.64561ZM83.4399 5.94933C83.139 5.94947 82.895 6.19327 82.895 6.49425C82.8951 6.7952 83.139 7.03902 83.4399 7.03917C83.741 7.03917 83.9848 6.79529 83.9849 6.49425C83.9849 6.19318 83.741 5.94933 83.4399 5.94933ZM74.3657 5.94933C74.0647 5.94933 73.8208 6.19318 73.8208 6.49425C73.8208 6.79528 74.0647 7.03916 74.3657 7.03917C74.6668 7.03917 74.9106 6.79529 74.9106 6.49425C74.9106 6.19318 74.6668 5.94933 74.3657 5.94933ZM81.5845 4.91222C81.3421 4.91232 81.146 5.10925 81.146 5.35167C81.1462 5.59393 81.3422 5.79005 81.5845 5.79015C81.8268 5.79015 82.0237 5.594 82.0239 5.35167C82.0239 5.10919 81.8269 4.91222 81.5845 4.91222ZM76.1567 4.91222C75.9145 4.91247 75.7183 5.10935 75.7183 5.35167C75.7184 5.59384 75.9146 5.78989 76.1567 5.79015C76.3991 5.79015 76.596 5.594 76.5962 5.35167C76.5962 5.10919 76.3992 4.91222 76.1567 4.91222ZM78.9116 4.48448C78.6101 4.48456 78.366 4.7289 78.3657 5.03038C78.3657 5.33209 78.6099 5.57717 78.9116 5.57726C79.2134 5.57726 79.4585 5.33214 79.4585 5.03038C79.4582 4.72885 79.2132 4.48448 78.9116 4.48448Z" fill="white"/>
<path d="M94.4733 8.89223V20.69C94.4733 21.7648 93.602 22.6361 92.5272 22.6361C91.4524 22.6361 90.5811 21.7648 90.5811 20.69V7.05006C90.5811 6.00704 91.4266 5.16151 92.4696 5.16151C93.4683 5.16151 94.2943 5.93899 94.3547 6.93581L94.4733 8.89223ZM93.8047 12.6182C93.7758 12.9666 93.4931 13.2491 93.1436 13.2447C92.7983 13.2402 92.5198 12.9572 92.5387 12.6124C92.5933 11.6142 92.759 10.6864 93.0359 9.82894C93.3804 8.79532 93.8542 7.90706 94.4571 7.16414C95.0708 6.42123 95.803 5.85059 96.6536 5.45221C97.5041 5.04307 98.4516 4.8385 99.496 4.8385C100.336 4.8385 101.095 4.95694 101.773 5.19381C102.462 5.41991 103.049 5.79137 103.534 6.30818C104.029 6.82499 104.406 7.49792 104.664 8.32697C104.923 9.14525 105.052 10.1519 105.052 11.3471V20.6819C105.052 21.7612 104.177 22.6361 103.098 22.6361C102.018 22.6361 101.143 21.7612 101.143 20.6819V11.3309C101.143 10.4911 101.02 9.82894 100.772 9.34443C100.535 8.84916 100.185 8.49924 99.7221 8.29466C99.2699 8.07933 98.7046 7.97166 98.0263 7.97166C97.3588 7.97166 96.7612 8.11163 96.2337 8.39157C95.7061 8.6715 95.2593 9.05373 94.8932 9.53824C94.5379 10.0227 94.2633 10.5826 94.0695 11.2179C93.9336 11.6635 93.8453 12.1303 93.8047 12.6182Z" fill="white"/>
<path d="M61.7046 19.8583C62.3398 19.8583 62.9105 19.7345 63.4165 19.4868C63.9333 19.2284 64.3478 18.8731 64.6601 18.4209C65.207 17.6552 65.9298 16.8543 66.8708 16.8543H66.9587C68.0024 16.8543 68.8777 17.7364 68.5087 18.7127C68.3473 19.1397 68.1303 19.5484 67.8578 19.939C67.2118 20.865 66.3559 21.6025 65.2899 22.1516C64.224 22.69 63.0451 22.9591 61.753 22.9591C60.4179 22.9591 59.2551 22.733 58.2646 22.2808C57.274 21.8179 56.4504 21.1826 55.7936 20.3751C55.1368 19.5676 54.6415 18.6362 54.3078 17.5811C53.9847 16.5259 53.8232 15.3954 53.8232 14.1895V13.6243C53.8232 12.4184 53.9847 11.2879 54.3078 10.2327C54.6415 9.16678 55.1368 8.23006 55.7936 7.42255C56.4504 6.61503 57.274 5.98517 58.2646 5.53296C59.2551 5.06999 60.4126 4.8385 61.7369 4.8385C63.1366 4.8385 64.364 5.11844 65.4191 5.67832C66.4743 6.22743 67.3033 6.99726 67.9063 7.98781C68.2065 8.46711 68.4359 8.98506 68.5944 9.54165C68.8795 10.5428 68.0061 11.4117 66.9652 11.4117C65.9724 11.4117 65.2087 10.5877 64.735 9.71529C64.7263 9.69928 64.7175 9.68333 64.7085 9.66744C64.4286 9.13986 64.0302 8.71996 63.5134 8.40772C63.0074 8.09548 62.399 7.93936 61.6884 7.93936C60.9024 7.93936 60.2511 8.10086 59.7342 8.42387C59.2174 8.73611 58.8137 9.16678 58.523 9.71589C58.2323 10.2542 58.0223 10.8626 57.8931 11.5409C57.7747 12.2084 57.7155 12.9029 57.7155 13.6243V14.1895C57.7155 14.9109 57.7747 15.6108 57.8931 16.2891C58.0115 16.9674 58.2161 17.5757 58.5068 18.114C58.8083 18.6416 59.2174 19.0669 59.7342 19.3899C60.2511 19.7022 60.9078 19.8583 61.7046 19.8583Z" fill="white"/>
<path d="M46.5879 19.1315V10.798C46.5879 10.1735 46.4749 9.63514 46.2488 9.18293C46.0227 8.73072 45.6781 8.3808 45.2152 8.13316C44.763 7.88552 44.1923 7.76171 43.5032 7.76171C42.868 7.76171 42.3189 7.86937 41.8559 8.08471C41.3929 8.30005 41.0322 8.59075 40.7738 8.95683C40.3521 9.55426 39.7934 10.2004 39.0621 10.2004H38.4482C37.3779 10.2004 36.4827 9.29384 36.9456 8.32877C36.9666 8.28501 36.9883 8.24134 37.0108 8.19776C37.3446 7.55175 37.8291 6.97572 38.4643 6.46968C39.0996 5.96364 39.8587 5.56526 40.7415 5.27456C41.6244 4.98385 42.615 4.8385 43.7132 4.8385C45.0267 4.8385 46.1896 5.05922 47.2017 5.50066C48.2245 5.9421 49.0266 6.60965 49.608 7.5033C50.2002 8.38618 50.4963 9.49517 50.4963 10.8303V18.5986C50.4963 19.3953 50.5501 20.1113 50.6578 20.7465C50.7726 21.352 50.933 21.8816 51.1389 22.3352C51.1517 22.3633 51.1585 22.3937 51.1585 22.4245C51.1585 22.5414 51.0637 22.6361 50.9469 22.6361H48.7481C47.7893 22.6361 46.9117 22.0633 46.7472 21.1187C46.7425 21.0918 46.7379 21.0646 46.7333 21.0373C46.6364 20.3805 46.5879 19.7452 46.5879 19.1315ZM45.966 12.0092C46.6243 12.0092 47.1603 12.5381 47.1691 13.1963C47.1781 13.867 46.6369 14.4156 45.966 14.4156H44.3915C43.6701 14.4156 43.0349 14.4856 42.4858 14.6256C41.9367 14.7548 41.4791 14.9486 41.113 15.207C40.7469 15.4654 40.4724 15.7776 40.2893 16.1437C40.1063 16.5098 40.0148 16.9243 40.0148 17.3873C40.0148 17.8503 40.1224 18.2756 40.3378 18.6632C40.5531 19.04 40.8654 19.3361 41.2745 19.5514C41.6944 19.7668 42.2004 19.8744 42.7926 19.8744C43.5894 19.8744 44.2838 19.7129 44.876 19.3899C45.479 19.0561 45.9527 18.6524 46.2972 18.1786C46.5868 17.7715 47.4348 17.6131 47.7291 18.0168L47.9193 18.2778C48.0371 18.4393 48.0757 18.6473 48.0058 18.8346C47.8737 19.1886 47.6864 19.5622 47.4439 19.9552C47.1317 20.4612 46.7225 20.9457 46.2165 21.4087C45.7212 21.8609 45.1236 22.2324 44.4238 22.5231C43.7347 22.8138 42.938 22.9591 42.0336 22.9591C40.8923 22.9591 39.8748 22.733 38.9812 22.2808C38.0875 21.8179 37.3877 21.1988 36.8816 20.4235C36.3756 19.6376 36.1226 18.7493 36.1226 17.7587C36.1226 16.8328 36.2948 16.0145 36.6394 15.3039C36.9947 14.5825 37.5115 13.9796 38.1898 13.4951C38.8789 13.0106 39.7187 12.6445 40.7092 12.3968C41.6998 12.1384 42.8303 12.0092 44.1008 12.0092H45.966Z" fill="white"/>
<path d="M26.7063 22.9591C25.4142 22.9591 24.246 22.7492 23.2016 22.3293C22.168 21.8986 21.2851 21.301 20.553 20.5366C19.8316 19.7721 19.2771 18.8731 18.8895 17.8395C18.5019 16.8059 18.3081 15.6915 18.3081 14.4964V13.8504C18.3081 12.483 18.5073 11.2448 18.9057 10.1358C19.304 9.02681 19.8585 8.07933 20.5691 7.29335C21.2798 6.4966 22.1196 5.88827 23.0886 5.46836C24.0576 5.04845 25.1074 4.8385 26.2379 4.8385C27.4868 4.8385 28.5797 5.04845 29.5164 5.46836C30.4531 5.88827 31.2283 6.48045 31.842 7.2449C32.4665 7.99858 32.9295 8.89761 33.231 9.942C33.5432 10.9864 33.6993 12.1384 33.6993 13.3982C33.6993 14.3169 32.9546 15.0616 32.0358 15.0616H21.5947C20.8231 15.0616 20.1977 14.4362 20.1977 13.6646C20.1977 12.8931 20.8231 12.2676 21.5947 12.2676H29.5487C29.7182 12.2676 29.8556 12.1303 29.8556 11.9608C29.834 11.2609 29.6941 10.6042 29.4356 9.99045C29.188 9.37674 28.8058 8.88146 28.289 8.50462C27.7722 8.12778 27.0831 7.93936 26.2217 7.93936C25.5757 7.93936 24.9997 8.07933 24.4937 8.35927C23.9984 8.62844 23.5839 9.02143 23.2501 9.53824C22.9163 10.055 22.6579 10.6795 22.4749 11.4117C22.3026 12.1331 22.2165 12.946 22.2165 13.8504V14.4964C22.2165 15.2608 22.3188 15.9714 22.5233 16.6282C22.7387 17.2742 23.0509 17.8395 23.46 18.324C23.8692 18.8085 24.3645 19.1907 24.9459 19.4707C25.5273 19.7398 26.1894 19.8744 26.9324 19.8744C27.8691 19.8744 28.7035 19.686 29.4356 19.3092C29.6984 19.1739 29.9486 19.0186 30.1864 18.8432C30.8841 18.3284 31.8843 18.2361 32.5071 18.8393C33.0184 19.3345 33.1047 20.1357 32.6081 20.6455C32.3987 20.8605 32.1703 21.0718 31.9228 21.2795C31.3198 21.7748 30.5823 22.1785 29.7102 22.4908C28.8489 22.803 27.8475 22.9591 26.7063 22.9591Z" fill="white"/>
<path d="M0.414062 1.94599C0.414062 0.871182 1.28536 -0.00012207 2.36017 -0.00012207C3.43498 -0.00012207 4.30628 0.871181 4.30628 1.94599V18.9054L4.10058 20.9714C4.00649 21.9163 3.21148 22.6361 2.26187 22.6361C1.24135 22.6361 0.414062 21.8088 0.414062 20.7883V1.94599ZM15.7084 13.7373V14.0765C15.7084 15.3685 15.563 16.5582 15.2723 17.6457C14.9924 18.7224 14.5617 19.6591 13.9803 20.4558C13.4097 21.2526 12.699 21.8717 11.8485 22.3131C11.0086 22.7438 10.0342 22.9591 8.92526 22.9591C7.83781 22.9591 6.89033 22.7546 6.08281 22.3454C5.2753 21.9363 4.59699 21.3549 4.04788 20.6012C3.50953 19.8475 3.07348 18.9485 2.7397 17.9041C2.40593 16.8597 2.16906 15.7076 2.02909 14.4479V13.3659C2.16906 12.0954 2.40593 10.9433 2.7397 9.90969C3.07348 8.86531 3.50953 7.96627 4.04788 7.21259C4.59699 6.44814 5.26991 5.86135 6.06666 5.45221C6.87418 5.04307 7.81627 4.8385 8.89296 4.8385C10.0127 4.8385 10.9979 5.05384 11.8485 5.48451C12.7098 5.91518 13.4258 6.5289 13.9964 7.32564C14.5671 8.11162 14.9924 9.04834 15.2723 10.1358C15.563 11.2232 15.7084 12.4238 15.7084 13.7373ZM11.8162 14.0765V13.7373C11.8162 12.9513 11.7516 12.2138 11.6224 11.5247C11.4932 10.8249 11.2778 10.2112 10.9763 9.68359C10.6856 9.15601 10.2873 8.74149 9.78123 8.44001C9.28595 8.12778 8.66686 7.97166 7.92394 7.97166C7.23486 7.97166 6.64269 8.09009 6.14741 8.32696C5.65214 8.56383 5.23761 8.88684 4.90384 9.29598C4.57007 9.70512 4.30628 10.1789 4.11248 10.7172C3.92944 11.2556 3.80562 11.837 3.74102 12.4614V15.3846C3.83792 16.1922 4.04249 16.9351 4.35473 17.6134C4.67774 18.2809 5.12994 18.8193 5.71135 19.2284C6.29276 19.6268 7.04106 19.826 7.95624 19.826C8.67762 19.826 9.28595 19.6806 9.78123 19.3899C10.2765 19.0992 10.6695 18.6955 10.9602 18.1786C11.2617 17.6511 11.477 17.0374 11.6062 16.3375C11.7462 15.6377 11.8162 14.884 11.8162 14.0765Z" fill="white"/>
</svg>
