<svg width="95" height="28" viewBox="0 0 95 28" fill="none" xmlns="http://www.w3.org/2000/svg">
<path d="M86.4346 18.159L94.24 9.38703H85.1019L81.9241 13.0188L78.6291 9.38703H61.2463V7.04393H69.4617V0H47.3195V11.0565H47.2463C45.8404 9.44561 44.0977 8.88912 42.0622 8.88912C37.9032 8.88912 34.7693 11.7301 33.671 15.4644C31.035 6.76569 19.4074 7.02929 15.8195 13.4142V9.87029H7.79438V6.03347H16.581V0.0146419H0.618652V27.0188H7.79438V15.6695H14.9555C14.7358 16.5042 14.6187 17.3975 14.6187 18.3347C14.6187 29.0398 29.6438 31.7197 33.6856 21.8054H27.535C25.3822 24.8661 20.8279 23.1088 20.8279 19.6674H33.3488C33.8906 24.1339 37.3613 28 42.15 28C44.2149 28 46.104 26.9895 47.2609 25.2761H47.3341V27.0188H78.4094L81.6459 23.3577L84.9115 27.0188H94.3425L86.4346 18.159ZM21.0182 15.728C21.9115 11.8766 27.1249 11.9791 27.8279 15.728H21.0182ZM43.4827 22.8891C38.4157 22.8891 38.5036 13.6925 43.4827 13.6925C48.2567 13.6925 48.535 22.8891 43.4827 22.8891ZM68.0559 25.6862H54.2316V1.30335H68.1438V5.72594H59.9283V10.6904H68.0559V14.8054H59.8404V21.3515H68.0559V25.6862ZM61.3341 19.8577V16.2845H69.5496V9.841L76.9743 18.1883L69.5496 26.5356V19.8577H61.3341ZM81.6312 21.3661L77.809 25.6862H72.2295L78.9074 18.1883L72.2295 10.6904H78.0433L81.9387 14.9812L85.6877 10.6904H91.3258L84.6772 18.159L91.4136 25.6862H85.4827L81.6312 21.3661Z" fill="white"/>
</svg>
