<svg width="87" height="32" viewBox="0 0 87 32" fill="none" xmlns="http://www.w3.org/2000/svg">
<g clip-path="url(#clip0_477_1130)">
<path d="M0.400391 16V32H43.5094H86.6184V16V0H43.5094H0.400391V16ZM85.1776 16V30.5592L43.5321 30.5441L1.87906 30.5213L1.85631 15.9773L1.84115 1.44076H43.5094H85.1776V16Z" fill="white"/>
<path d="M7.83154 7.76493V8.1744L8.15761 8.22748C8.33202 8.25023 8.58984 8.29573 8.72633 8.31848L8.96898 8.35639L8.95382 15.9924L8.93107 23.6208L8.3851 23.6815L7.83154 23.7498V24.1972V24.6445H10.7131H13.5946V24.1972V23.7498L13.0486 23.6815L12.495 23.6208L12.4723 20.1479L12.4571 16.6825H16.2486H20.0401V20.1251C20.0401 22.999 20.0249 23.5754 19.9339 23.6057C19.8732 23.6284 19.5851 23.6739 19.2894 23.7043L18.751 23.7573V24.1972V24.6445H21.7083H24.6657V24.1972V23.7498L24.1576 23.6967C23.8846 23.6663 23.6116 23.6284 23.551 23.6057C23.4676 23.5754 23.4524 22.2104 23.4524 15.9621V8.35639L23.7557 8.3109C23.9225 8.28815 24.1955 8.24265 24.3623 8.2199L24.6657 8.1744V7.76493V7.35545H21.7083H18.751V7.76493V8.1744L19.115 8.2199C19.3121 8.25023 19.6003 8.28815 19.7595 8.3109L20.0401 8.35639V11.6095V14.8626H16.2486H12.4571V11.6095V8.35639L12.7832 8.30331C13.678 8.16682 13.5946 8.2199 13.5946 7.76493V7.35545H10.7131H7.83154V7.76493Z" fill="white"/>
<path d="M29.1321 7.56778C27.5549 8.38673 28.1842 10.7678 29.9738 10.7678C30.5122 10.7678 30.9293 10.5706 31.2781 10.1687C31.8468 9.50143 31.8468 8.62181 31.2705 7.95451C30.7397 7.32512 29.8828 7.17346 29.1321 7.56778Z" fill="white"/>
<path d="M35.0542 7.72701V8.09857L35.5698 8.15924L36.0779 8.22748L36.1006 15.9772L36.1158 23.7194L35.9111 23.7649C35.7897 23.7877 35.5547 23.8256 35.3803 23.8483L35.0542 23.9014V24.273V24.6445H37.7461H40.4381V24.273V23.9014L40.1196 23.8483C39.9376 23.8256 39.7025 23.7877 39.5888 23.7649L39.3765 23.7194V15.5374V7.35545H37.2153H35.0542V7.72701Z" fill="white"/>
<path d="M45.4657 9.28152L43.9264 9.74408V11.0483V12.3602H42.751H41.5757V12.9289V13.4976H42.7055H43.843L43.8657 18.1005C43.8961 23.2265 43.8961 23.1735 44.4193 23.9014C45.2155 24.9934 47.5965 25.1071 50.4326 24.182L50.9027 24.0228V23.6057V23.1886L50.6752 23.2417C50.5463 23.272 50.0079 23.2948 49.4771 23.2948C48.097 23.3024 47.6572 23.1355 47.3236 22.4607L47.1491 22.1043L47.1264 17.7972L47.1036 13.4976H48.552H49.9927V12.9289V12.3602H48.552H47.1112V10.5782C47.1112 9.60001 47.0885 8.79621 47.0581 8.8038C47.0202 8.81138 46.3074 9.0237 45.4657 9.28152Z" fill="white"/>
<path d="M57.1207 12.0265C55.9833 12.1782 54.5653 12.7469 53.7691 13.3763C52.8364 14.1194 52.0857 15.3024 51.7369 16.5687C51.5018 17.418 51.4411 19.3062 51.6155 20.3147C51.8658 21.7251 52.2752 22.5972 53.1018 23.4313C54.0876 24.4246 55.4449 24.91 57.4999 24.9934C59.6686 25.0919 61.443 24.5156 62.7321 23.3024C63.953 22.1573 64.5217 20.8303 64.6051 18.9573C64.6582 17.7668 64.5444 16.8645 64.2184 15.909C63.8847 14.9156 63.5662 14.4076 62.8459 13.6872C62.353 13.1867 62.1027 13.0123 61.5188 12.7166C60.5255 12.2313 59.7596 12.0569 58.4478 12.019C57.8639 12.0038 57.2648 12.0114 57.1207 12.0265ZM58.4857 12.9668C59.3729 13.1337 59.9795 13.6417 60.4193 14.5972C60.897 15.6284 61.0639 16.6294 61.0639 18.5327C61.0639 22.3318 60.1388 24.0455 58.0686 24.0531C57.3179 24.0607 56.7719 23.8483 56.3094 23.363C55.3463 22.3773 54.8762 20.0872 55.0733 17.4028C55.2705 14.7109 56.0819 13.255 57.5226 12.9668C57.97 12.8834 58.0383 12.8834 58.4857 12.9668Z" fill="white"/>
<path d="M74.0459 12.1403C73.098 12.2616 71.9303 12.7848 70.9369 13.5355C70.6336 13.763 70.3454 13.9526 70.3075 13.9526C70.2696 13.9526 70.2393 13.5962 70.2393 13.1564V12.3602H68.0781H65.917V12.7697V13.1791L66.281 13.2246C66.4781 13.255 66.7284 13.2929 66.8497 13.3156L67.0544 13.3611V18.5403V23.7194L66.6222 23.7649C65.917 23.8483 65.917 23.8483 65.917 24.273V24.6445H68.6468H71.3767V24.2654C71.3767 24.0531 71.354 23.8863 71.3236 23.8787C71.2857 23.8711 71.0431 23.8332 70.7701 23.7801L70.2772 23.6967V19.2986V14.9005L70.6563 14.6502C70.8687 14.5137 71.3085 14.2938 71.6421 14.1649C72.1653 13.9526 72.3397 13.9223 72.9312 13.9147C73.6819 13.9147 74.0307 14.0436 74.425 14.4607C75.0241 15.09 75.1075 15.7953 75.0772 20.2464L75.0544 23.6967L74.5615 23.7801C74.2886 23.8332 74.0459 23.8711 74.0156 23.8787C73.9777 23.8863 73.9549 24.0531 73.9549 24.2654V24.6445H76.6848H79.4146V24.273C79.4146 23.8483 79.4146 23.8483 78.717 23.7725L78.2848 23.7194L78.262 19.3062C78.2393 14.9384 78.2317 14.8929 78.0573 14.3697C77.8222 13.6493 77.5947 13.2777 77.1397 12.8682C76.6923 12.4663 76.1236 12.2313 75.3653 12.1327C74.7587 12.0493 74.7056 12.0493 74.0459 12.1403Z" fill="white"/>
<path d="M27.2441 12.7318V13.1033L27.6081 13.1488C27.8053 13.1791 28.0555 13.2171 28.1768 13.2398L28.3816 13.2853L28.3664 18.4872L28.3437 23.6967L27.8508 23.7801C27.5778 23.8332 27.3351 23.8711 27.3048 23.8787C27.2669 23.8863 27.2441 24.0531 27.2441 24.2654V24.6445H29.9816H32.7114L32.6887 24.2957C32.6584 23.8787 32.6053 23.8332 32.0062 23.7725L31.5664 23.727V18.0398V12.3602H29.4053H27.2441V12.7318Z" fill="white"/>
</g>
<defs>
<clipPath id="clip0_477_1130">
<rect width="86.218" height="32" fill="white" transform="translate(0.400391)"/>
</clipPath>
</defs>
</svg>
