<svg width="97" height="24" viewBox="0 0 97 24" fill="none" xmlns="http://www.w3.org/2000/svg">
<path d="M93.0917 -6.10352e-05L88.1438 2.2574V5.0715H84.835V8.75147H88.1438V19.7914C88.1438 24.1208 93.6483 24.1053 96.4006 23.5487V19.7914C95.5347 19.8842 95.154 19.9109 94.4369 19.7914C93.5142 19.6376 93.0917 18.8482 93.0917 18.3225V8.75147H96.4006V5.0715H93.0917V-6.10352e-05Z" fill="white"/>
<path fill-rule="evenodd" clip-rule="evenodd" d="M83.9783 11.8856H79.3897C79.3897 10.9197 78.8966 8.99414 76.3073 9.0188C73.4574 9.04594 73.0629 12.5253 73.0406 14.3514H68.412C68.4369 10.9097 69.8554 4.70325 76.3073 4.70325C82.4062 4.70325 83.9783 9.57366 83.9783 11.8856ZM83.978 16.8176H79.3894C79.3894 17.7835 78.8962 19.7091 76.3069 19.6844C73.4569 19.6572 73.0625 16.1775 73.0402 14.3515H68.4116C68.4364 17.7931 69.8548 23.9999 76.3069 23.9999C82.4059 23.9999 83.978 19.1295 83.978 16.8176Z" fill="white"/>
<path fill-rule="evenodd" clip-rule="evenodd" d="M14.618 10.7644H19.102C19.102 10.1459 19.5948 8.36775 22.4418 8.44506C25.2888 8.52237 25.4105 10.4087 25.4105 12.1096C25.4105 12.518 23.6162 12.6023 21.8436 12.6855C20.7979 12.7346 19.7598 12.7834 19.102 12.8981C17.329 13.2074 14.1851 14.2433 13.783 17.011C13.647 17.9476 13.6985 18.7648 13.7831 19.3226C14.0622 21.1627 15.886 23.8066 19.535 23.8066C23.184 23.8066 24.7714 22.0878 25.4105 21.2786V23.7061H30.2656V9.82119C30.2656 7.82658 27.9958 4.70325 22.3799 4.70325C15.3602 4.70325 14.618 9.31094 14.618 10.0067V10.7644ZM25.4105 15.681C25.4105 17.2736 25.2095 19.8712 21.8233 20.1032C18.2908 20.3451 18.5608 17.9848 18.7463 17.3664C18.9319 16.7479 19.906 15.681 22.2253 15.681H25.4105Z" fill="white"/>
<path fill-rule="evenodd" clip-rule="evenodd" d="M51.2161 10.7644H55.7001C55.7001 10.1459 56.193 8.36775 59.0399 8.44506C61.8869 8.52237 62.0087 10.4087 62.0087 12.1096C62.0087 12.518 60.2144 12.6023 58.4417 12.6855C57.3961 12.7346 56.358 12.7834 55.7001 12.8981C53.9272 13.2074 50.7832 14.2433 50.3812 17.011C50.2452 17.9476 50.2966 18.7648 50.3812 19.3226C50.6603 21.1627 52.4841 23.8066 56.1331 23.8066C59.7821 23.8066 61.3696 22.0878 62.0087 21.2786V23.7061H66.8638V9.82119C66.8638 7.82658 64.5939 4.70325 58.9781 4.70325C51.9583 4.70325 51.2161 9.31094 51.2161 10.0067V10.7644ZM62.0086 15.681C62.0086 17.2736 61.8076 19.8712 58.4214 20.1032C54.8889 20.3451 55.1589 17.9848 55.3445 17.3664C55.53 16.7479 56.5041 15.681 58.8235 15.681H62.0086Z" fill="white"/>
<path d="M37.3214 5.20529H31.8169L38.1563 14.3279L31.8169 23.6825H37.3214L40.9782 18.2012L44.5267 23.6825H50.124L45.7327 17.4822H41.4961L52.366 1.4944H46.6914L40.8313 10.215L37.3214 5.20529Z" fill="white"/>
<path d="M8.83291 0L3.88505 2.25746V5.07156H0.576172V8.75153H3.88505V19.7914C3.88505 24.1208 9.38955 24.1054 12.1418 23.5487V19.7914C11.2759 19.8842 10.8952 19.911 10.1781 19.7914C9.2554 19.6377 8.83291 18.8483 8.83291 18.3225V8.75153H12.1418V5.07156H8.83291V0Z" fill="white"/>
</svg>
