<svg width="106" height="32" viewBox="0 0 106 32" fill="none" xmlns="http://www.w3.org/2000/svg">
<path d="M41.7528 20.6857V23.835H43.5704C44.6151 23.835 45.2798 23.2157 45.2798 22.2767C45.2798 21.3377 44.6126 20.7033 43.5704 20.7033L41.7528 20.6857ZM39.5273 18.8681H43.7517C46.0375 18.8681 47.5505 20.1998 47.5505 22.2742C47.5505 23.5908 46.8532 24.6356 45.7782 25.1516L47.8224 29.1015H45.3704L43.6308 25.6652H41.7679V29.1015H39.5424L39.5273 18.8681Z" fill="white"/>
<path d="M54.8908 24.4541C54.7397 23.5302 54.1028 23.0167 53.1487 23.0167C52.1946 23.0167 51.5602 23.5604 51.4519 24.4541H54.8908ZM49.229 25.3478C49.229 23.0016 50.7873 21.4886 53.1336 21.4886C55.495 21.4886 56.9476 22.8958 56.9778 25.091C56.9778 25.3176 56.9627 25.5593 56.9174 25.7884H51.3915V25.8941C51.4368 26.954 52.1342 27.6035 53.1789 27.6035C54.0273 27.6035 54.6164 27.2409 54.7976 26.5436H56.8569C56.6153 28.0113 55.2986 29.1769 53.2695 29.1769C50.7571 29.1769 49.229 27.679 49.229 25.3478Z" fill="white"/>
<path d="M63.6066 21.579H65.6961V29.0886H63.8482L63.6519 28.1798C63.1685 28.7714 62.5014 29.1792 61.4113 29.1792C59.8379 29.1792 58.3828 28.4063 58.3828 25.7429V21.579H60.4723V25.4685C60.4723 26.8153 60.9104 27.4673 61.9551 27.4673C62.9998 27.4673 63.604 26.7247 63.604 25.3325L63.6066 21.579Z" fill="white"/>
<path d="M67.1167 19.4748H69.2062V21.5794H70.9483V23.3189H69.2062V26.6042C69.2062 27.1354 69.4176 27.3468 69.9488 27.3468H71.0238V29.0864H69.2817C67.8291 29.0864 67.1016 28.3739 67.1016 26.9365L67.1167 19.4748Z" fill="white"/>
<path d="M78.0915 24.4541C77.9404 23.5302 77.3035 23.0167 76.3494 23.0167C75.3953 23.0167 74.7609 23.5604 74.6551 24.4541H78.0915ZM72.4297 25.3478C72.4297 23.0016 73.988 21.4886 76.3368 21.4886C78.6982 21.4886 80.1508 22.8958 80.181 25.091C80.181 25.3176 80.1659 25.5593 80.1206 25.7884H74.5947V25.8941C74.64 26.954 75.3374 27.6035 76.3821 27.6035C77.2305 27.6035 77.8196 27.2409 78.0008 26.5436H80.0601C79.8185 28.0113 78.5018 29.1769 76.4727 29.1769C73.9578 29.1769 72.4297 27.679 72.4297 25.3478Z" fill="white"/>
<path d="M86.2221 21.579V23.4571H85.3888C84.1477 23.4571 83.6769 24.2752 83.6769 25.4106V29.0886H81.5874V21.579H83.4805L83.6769 22.6993C84.0847 22.0322 84.6763 21.579 85.8721 21.579H86.2221Z" fill="white"/>
<path d="M89.6117 26.5893C89.6872 27.2413 90.2637 27.6945 91.2908 27.6945C92.1694 27.6945 92.6981 27.4226 92.6981 26.8914C92.6981 26.2721 92.182 26.2394 90.956 26.0732C89.1837 25.8618 87.8067 25.469 87.8067 23.9233C87.8067 22.3776 89.1233 21.4562 91.0769 21.4713C93.121 21.4713 94.5283 22.365 94.634 23.8931H92.6352C92.5747 23.2889 91.9983 22.9239 91.1524 22.9239C90.3065 22.9239 89.8055 23.2109 89.8055 23.6968C89.8055 24.2732 90.4576 24.3337 91.5476 24.4545C93.2897 24.6358 94.7423 25.031 94.7423 26.7252C94.7423 28.208 93.3199 29.1621 91.2757 29.1621C89.2316 29.1621 87.7186 28.1778 87.6279 26.5742L89.6117 26.5893Z" fill="white"/>
<path d="M38.9546 3.351H47.1766V5.24159H44.1632V13.5844H41.9529V5.24159H38.9546V3.351Z" fill="white"/>
<path d="M55.8881 9.42044V13.5843H53.7986V9.58659C53.7986 8.3606 53.3002 7.66327 52.2554 7.66327C51.2107 7.66327 50.5612 8.42102 50.5612 9.70743V13.5667H48.4717V3.33327H50.5612V6.98104C51.0445 6.38944 51.7268 5.96651 52.8168 5.96651C54.496 5.98413 55.8881 6.87783 55.8881 9.42044Z" fill="white"/>
<path d="M63.1031 9.82793C63.1031 8.55662 62.3756 7.66293 61.21 7.66293C60.0444 7.66293 59.332 8.55662 59.332 9.82793C59.332 11.0992 60.0444 11.9929 61.21 11.9929C62.3756 11.9929 63.1031 11.0992 63.1031 9.82793ZM57.1846 9.82793C57.1846 7.51188 58.7731 5.9838 61.1974 5.9838C63.6192 5.9838 65.2103 7.51188 65.2103 9.82793C65.2103 12.144 63.6217 13.6721 61.1974 13.6721C58.7731 13.6721 57.1846 12.144 57.1846 9.82793Z" fill="white"/>
<path d="M78.4336 9.26903V13.5839H76.3441V9.38986C76.3441 8.2696 75.9363 7.68052 75.0275 7.68052C74.1187 7.68052 73.5145 8.33254 73.5145 9.48301V13.5864H71.425V9.39238C71.425 8.27212 71.0172 7.68304 70.0933 7.68304C69.1693 7.68304 68.5954 8.36527 68.5954 9.50063V13.589H66.5059V6.07943H68.3235L68.5198 7.01843C68.973 6.42684 69.6401 6.00391 70.7604 5.9888C71.6994 5.9737 72.5629 6.306 73.0462 7.26011C73.5774 6.45705 74.4686 5.9888 75.6191 5.9888C77.1774 5.98377 78.4185 6.86235 78.4336 9.26903Z" fill="white"/>
<path d="M81.7142 11.0842C81.7898 11.7362 82.3663 12.1894 83.3934 12.1894C84.272 12.1894 84.8006 11.9175 84.8006 11.3863C84.8006 10.767 84.2846 10.7343 83.0435 10.5681C81.2712 10.3567 79.8941 9.96396 79.8941 8.41825C79.8941 6.87506 81.2107 5.95116 83.1643 5.96626C85.2085 5.96626 86.6157 6.85995 86.7215 8.38804H84.7226C84.6622 7.78385 84.0857 7.41882 83.2398 7.41882C82.3939 7.41882 81.893 7.70581 81.893 8.19168C81.893 8.76566 82.545 8.82859 83.6502 8.94943C85.3923 9.13068 86.8448 9.52592 86.8448 11.2202C86.8448 12.7029 85.4225 13.657 83.3783 13.657C81.3341 13.657 79.8211 12.6727 79.7305 11.0691L81.7142 11.0842Z" fill="white"/>
<path d="M94.0456 9.82793C94.0456 8.55662 93.3181 7.66293 92.1525 7.66293C90.9869 7.66293 90.2745 8.55662 90.2745 9.82793C90.2745 11.0992 90.9869 11.9929 92.1525 11.9929C93.3181 11.9929 94.0456 11.0992 94.0456 9.82793ZM88.1396 9.82793C88.1396 7.51188 89.7282 5.9838 92.1525 5.9838C94.5768 5.9838 96.1628 7.51188 96.1628 9.82793C96.1628 12.144 94.5743 13.6721 92.15 13.6721C89.7257 13.6721 88.1396 12.144 88.1396 9.82793Z" fill="white"/>
<path d="M105.414 9.42022V13.5841H103.324V9.61658C103.324 8.34528 102.841 7.67815 101.781 7.67815C100.736 7.67815 100.087 8.4359 100.087 9.73742V13.5816H97.9971V6.07203H99.8147L100.011 7.01103C100.494 6.41943 101.192 5.9814 102.372 5.9814C104.006 5.98392 105.414 6.8474 105.414 9.42022Z" fill="white"/>
<path d="M27.7546 4.2895C28.1575 4.69238 28.3945 5.23744 28.3945 5.8299C28.3945 6.42236 28.1812 6.94373 27.7546 7.3703C26.9015 8.22344 25.5269 8.22344 24.6975 7.3703C24.2946 6.96742 24.0576 6.42236 24.0576 5.8299C24.0576 5.23744 24.2709 4.71607 24.6975 4.2895C25.1241 3.86293 25.6691 3.64964 26.2379 3.64964C26.783 3.64964 27.328 3.86293 27.7546 4.2895Z" fill="white"/>
<path d="M4.34104 27.7035C3.48788 26.8504 3.48788 25.4759 4.34104 24.6464C4.74391 24.2436 5.28898 24.0066 5.88145 24.0066C6.45022 24.0066 6.99528 24.2199 7.42186 24.6464C8.27501 25.4996 8.27501 26.8741 7.42186 27.7035C7.01898 28.1064 6.47391 28.3434 5.88145 28.3434C5.31268 28.3434 4.76761 28.1301 4.34104 27.7035Z" fill="white"/>
<path d="M20.8356 4.45519C20.3616 4.2656 20.0061 3.88643 19.8165 3.43616C19.6269 2.96219 19.6269 2.46452 19.8165 1.99055C20.0061 1.51658 20.3853 1.16111 20.8356 0.971522C21.0725 0.876729 21.3095 0.82933 21.5702 0.82933C21.8072 0.82933 22.0679 0.876729 22.3049 0.971522C23.2765 1.3744 23.7268 2.48822 23.3239 3.43616C22.921 4.38409 21.8072 4.85806 20.8356 4.45519Z" fill="white"/>
<path d="M10.5507 27.3954C10.7877 27.3954 11.0484 27.4428 11.2854 27.5376C12.257 27.9405 12.7073 29.0543 12.3044 30.0022C12.1148 30.4762 11.7357 30.8317 11.2854 31.0213C10.8114 31.2109 10.3137 31.2109 9.83977 31.0213C8.86812 30.6184 8.41785 29.5046 8.82072 28.5566C9.01031 28.0827 9.38949 27.7272 9.83977 27.5376C10.0531 27.4428 10.29 27.3954 10.5507 27.3954Z" fill="white"/>
<path d="M17.684 1.61149C17.684 2.48833 16.9967 3.19929 16.1435 3.22299H16.0724C15.1719 3.22299 14.4609 2.48833 14.4609 1.61149C14.4609 0.734652 15.1956 0 16.0724 0C16.9493 0 17.684 0.710953 17.684 1.61149Z" fill="white"/>
<path d="M16.0461 32C16.9361 32 17.6576 31.2785 17.6576 30.3885C17.6576 29.4985 16.9361 28.777 16.0461 28.777C15.1561 28.777 14.4346 29.4985 14.4346 30.3885C14.4346 31.2785 15.1561 32 16.0461 32Z" fill="white"/>
<path d="M11.0717 3.95749C10.7399 4.09968 10.3607 4.09968 10.0289 3.95749C9.69716 3.8153 9.43648 3.55462 9.29429 3.22284C9.0099 2.53559 9.34168 1.72984 10.0289 1.44546C10.1948 1.37436 10.3607 1.35066 10.5503 1.35066C11.0717 1.35066 11.5931 1.65874 11.8063 2.18011C11.9485 2.51188 11.9485 2.89106 11.8063 3.22284C11.6642 3.55462 11.4035 3.8153 11.0717 3.95749Z" fill="white"/>
<path d="M21.0483 28.0353C21.2142 27.9642 21.4038 27.9405 21.5697 27.9405C21.7356 27.9405 21.9252 27.9879 22.0911 28.0353C22.4229 28.1775 22.6835 28.4381 22.8257 28.7699C22.9679 29.1017 22.9679 29.4809 22.8257 29.8126C22.6835 30.1444 22.4229 30.4051 22.0911 30.5473C21.7593 30.6895 21.3801 30.6895 21.0483 30.5473C20.7166 30.4051 20.4559 30.1444 20.3137 29.8126C20.1715 29.4809 20.1715 29.1017 20.3137 28.7699C20.4559 28.4381 20.6929 28.1775 21.0483 28.0353Z" fill="white"/>
<path d="M6.64062 5.04755C7.06719 5.47412 7.06719 6.13768 6.66432 6.56425L6.64062 6.58795C6.21404 7.01452 5.52678 7.01452 5.10021 6.58795C4.67363 6.16138 4.67363 5.47412 5.10021 5.04755C5.31349 4.83427 5.59788 4.73947 5.85856 4.73947C6.14295 4.73947 6.42733 4.85796 6.64062 5.04755Z" fill="white"/>
<path d="M25.4568 25.4048C25.6701 25.1915 25.9545 25.0967 26.2151 25.0967C26.4758 25.0967 26.7602 25.1915 26.9735 25.4048C27.1868 25.6181 27.2816 25.8788 27.2816 26.1631C27.2816 26.4475 27.1631 26.7319 26.9735 26.9215C26.5469 27.3481 25.8597 27.3481 25.4331 26.9215C25.2198 26.7082 25.125 26.4475 25.125 26.1631C25.125 25.8788 25.2435 25.6181 25.4568 25.4048Z" fill="white"/>
<path d="M2.23207 11.7306C1.54481 11.4462 1.21303 10.6405 1.49741 9.95324C1.6396 9.62146 1.90029 9.36078 2.23207 9.21859C2.39796 9.14749 2.58755 9.12379 2.75344 9.12379C2.91933 9.12379 3.10892 9.14749 3.27481 9.21859C3.96207 9.50297 4.29385 10.3087 4.00947 10.996C3.86728 11.3277 3.60659 11.5884 3.27481 11.7306C2.94303 11.8728 2.56385 11.8728 2.23207 11.7306Z" fill="white"/>
<path d="M29.8645 20.2621C30.1963 20.4043 30.457 20.665 30.5992 20.9968C30.7414 21.3286 30.7414 21.7077 30.5992 22.0395C30.3148 22.7268 29.5327 23.0586 28.8218 22.7742C28.49 22.632 28.2293 22.3713 28.0871 22.0395C27.9449 21.7077 27.9449 21.3286 28.0871 20.9968C28.3004 20.4754 28.7981 20.1674 29.3431 20.1674C29.5327 20.1674 29.6986 20.191 29.8645 20.2621Z" fill="white"/>
<path d="M1.66327 17.6079C2.55328 17.6079 3.27477 16.8864 3.27477 15.9964C3.27477 15.1064 2.55328 14.3849 1.66327 14.3849C0.773255 14.3849 0.0517578 15.1064 0.0517578 15.9964C0.0517578 16.8864 0.773255 17.6079 1.66327 17.6079Z" fill="white"/>
<path d="M30.4577 17.6079C31.3477 17.6079 32.0692 16.8864 32.0692 15.9964C32.0692 15.1064 31.3477 14.3849 30.4577 14.3849C29.5677 14.3849 28.8462 15.1064 28.8462 15.9964C28.8462 16.8864 29.5677 17.6079 30.4577 17.6079Z" fill="white"/>
<path d="M1.00041 22.2291C0.597535 21.2575 1.04781 20.1673 2.01945 19.7645C2.49343 19.5749 2.9911 19.5749 3.46507 19.7645C3.93905 19.954 4.29452 20.3332 4.48411 20.7835C4.6737 21.2338 4.6737 21.7551 4.48411 22.2291C4.29452 22.7031 3.91535 23.0585 3.46507 23.2481C2.9911 23.4377 2.49343 23.4377 2.01945 23.2481C1.54548 23.0585 1.19 22.7031 1.00041 22.2291Z" fill="white"/>
<path d="M27.5899 11.2093C27.4004 10.7353 27.4004 10.2376 27.5899 9.76367C27.7795 9.2897 28.1587 8.93422 28.609 8.74464C28.846 8.64984 29.083 8.60245 29.3199 8.60245C30.0546 8.60245 30.7656 9.05272 31.0736 9.76367C31.4765 10.7353 31.0262 11.8254 30.0546 12.2283C29.5806 12.4179 29.083 12.4179 28.609 12.2283C28.1587 12.0387 27.7795 11.6832 27.5899 11.2093Z" fill="white"/>
<path d="M20.7178 20.665C20.1491 21.2338 20.1491 22.1343 20.7178 22.7031C21.2866 23.2718 22.1871 23.2718 22.7559 22.7031C23.0403 22.4187 23.1825 22.0632 23.1825 21.684C23.1825 21.3049 23.0403 20.9257 22.7559 20.665C22.4715 20.3806 22.116 20.2384 21.7369 20.2384C21.3577 20.2384 21.0022 20.3806 20.7178 20.665ZM20.6704 20.5939C20.078 21.1864 20.078 22.158 20.6704 22.7505C21.2629 23.3429 22.2345 23.3429 22.827 22.7505C23.1114 22.4661 23.2773 22.0869 23.2773 21.684C23.2773 21.2812 23.1114 20.902 22.827 20.6176C22.5426 20.3332 22.1397 20.1674 21.7606 20.1674C21.3814 20.1674 20.9548 20.3095 20.6704 20.5939Z" fill="white"/>
<path d="M7.96728 15.0721C7.32742 14.9062 6.94824 14.2426 7.11413 13.6027C7.20892 13.2947 7.39851 13.034 7.6829 12.8681C7.87248 12.7496 8.08577 12.7022 8.27536 12.7022C8.37016 12.7022 8.48865 12.7259 8.58344 12.7496C8.89153 12.8444 9.15221 13.034 9.3181 13.3184C9.48399 13.6027 9.53139 13.9345 9.4366 14.2426C9.27071 14.8588 8.60714 15.2616 7.96728 15.0721Z" fill="white"/>
<path d="M23.5133 19.2433C23.2052 19.1485 22.9445 18.9589 22.7786 18.6745C22.6127 18.3901 22.5653 18.0583 22.6601 17.7503C22.7549 17.4422 22.9445 17.1815 23.2289 17.0156C23.4185 16.8971 23.6318 16.8497 23.8214 16.8497C23.9162 16.8497 23.9873 16.8497 24.082 16.8734L24.1294 16.8971C24.7693 17.063 25.1485 17.7266 24.9826 18.3664C24.8878 18.6745 24.6982 18.9352 24.4138 19.1011C24.1294 19.267 23.8214 19.3144 23.5133 19.2433Z" fill="white"/>
<path d="M7.35118 18.3187C7.20899 17.8211 7.49337 17.3234 7.96735 17.1575L8.01474 17.1338C8.53611 16.9916 9.05748 17.2997 9.19968 17.8211C9.27077 18.0817 9.22337 18.3187 9.10488 18.5557C8.98639 18.769 8.7731 18.9349 8.51242 19.006C8.25173 19.0771 8.01474 19.0297 7.77776 18.9112C7.58817 18.7927 7.42228 18.5794 7.35118 18.3187Z" fill="white"/>
<path d="M23.3233 14.7643L23.2759 14.7406C23.0863 14.5984 22.9204 14.4088 22.8731 14.1718C22.7309 13.6504 23.0389 13.1291 23.5603 12.9869C24.0817 12.8447 24.6031 13.1528 24.7452 13.6741C24.8874 14.1955 24.5794 14.7169 24.058 14.8591C23.821 14.9302 23.5603 14.8828 23.3233 14.7643Z" fill="white"/>
<path d="M10.9064 22.1581C10.5983 22.4662 10.1481 22.4662 9.86368 22.1818C9.57929 21.8974 9.57929 21.4472 9.86368 21.1628C10.1481 20.8784 10.5983 20.8784 10.8827 21.1628C11.0249 21.305 11.096 21.4709 11.096 21.6841C11.096 21.85 11.0249 22.0159 10.9064 22.1581Z" fill="white"/>
<path d="M22.2338 9.78749C22.376 9.92968 22.4471 10.0956 22.4471 10.3089C22.4471 10.5221 22.376 10.688 22.2338 10.8302C21.9494 11.1146 21.4991 11.1146 21.2148 10.8302C21.0726 10.688 21.0015 10.5221 21.0015 10.3089C21.0015 10.0956 21.0726 9.92968 21.2148 9.78749C21.3569 9.6453 21.5228 9.5742 21.7361 9.5742C21.9494 9.5742 22.1153 9.669 22.2338 9.78749Z" fill="white"/>
<path d="M14.816 23.2718C14.9345 23.4851 14.9819 23.7458 14.9108 24.0064C14.8397 24.2671 14.6738 24.4567 14.4605 24.5989C14.2472 24.7411 13.9865 24.7648 13.7258 24.6937C13.2045 24.5515 12.8964 24.0301 13.0386 23.5088C13.1097 23.2481 13.2756 23.0585 13.4889 22.9163C13.7021 22.7978 13.9628 22.7504 14.2235 22.8215C14.4605 22.8926 14.6738 23.0585 14.816 23.2718Z" fill="white"/>
<path d="M17.2805 8.72084C17.1621 8.50756 17.1147 8.24687 17.1857 7.98619C17.2568 7.72551 17.4227 7.53592 17.636 7.39373C17.7782 7.29894 17.9441 7.27524 18.11 7.27524C18.2048 7.27524 18.2759 7.27524 18.3707 7.29894C18.6314 7.37003 18.821 7.53592 18.9631 7.74921C19.0816 7.96249 19.129 8.22318 19.0579 8.48386C18.9158 9.00522 18.3944 9.3133 17.873 9.17111C17.636 9.10002 17.4227 8.95783 17.2805 8.72084Z" fill="white"/>
<path d="M18.7498 22.7268L18.7972 22.7505C19.0579 22.9164 19.2238 23.1534 19.2949 23.4615C19.4608 24.1013 19.0816 24.7649 18.4417 24.9308C18.1336 25.0256 17.8019 24.9782 17.5175 24.8123C17.2331 24.6464 17.0435 24.3857 16.9487 24.0776C16.8539 23.7695 16.9013 23.4378 17.0672 23.1534C17.2331 22.869 17.4938 22.6794 17.8019 22.5846C17.8967 22.5609 18.0151 22.5372 18.1099 22.5372C18.3469 22.5609 18.5602 22.6083 18.7498 22.7268Z" fill="white"/>
<path d="M14.2944 9.40829C13.6545 9.57418 12.991 9.19501 12.8251 8.55515C12.6592 7.9153 13.0384 7.25174 13.6782 7.08585C13.773 7.06215 13.8915 7.03845 13.9863 7.03845C14.5077 7.03845 15.0053 7.39393 15.1475 7.93899C15.3134 8.57885 14.9342 9.21871 14.2944 9.40829Z" fill="white"/>
<path d="M10.3619 11.8254C11.1996 11.8254 11.8786 11.1464 11.8786 10.3088C11.8786 9.4711 11.1996 8.79205 10.3619 8.79205C9.52427 8.79205 8.84521 9.4711 8.84521 10.3088C8.84521 11.1464 9.52427 11.8254 10.3619 11.8254Z" fill="white"/>
</svg>
