<svg width="41" height="41" viewBox="0 0 41 41" fill="none" xmlns="http://www.w3.org/2000/svg">
<mask id="mask0_28_446" style="mask-type:alpha" maskUnits="userSpaceOnUse" x="0" y="0" width="41" height="41">
<rect x="0.316406" y="0.539062" width="40" height="40" fill="#D9D9D9"/>
</mask>
<g mask="url(#mask0_28_446)">
<path d="M17.5942 20.5614L24.6776 26.5233C24.9459 26.7494 25.0755 27.0223 25.0663 27.3419C25.0572 27.6612 24.9183 27.934 24.6497 28.16C24.381 28.3861 24.0523 28.4992 23.6634 28.4992C23.2745 28.4992 22.9459 28.3861 22.6776 28.16L14.6217 21.38C14.4737 21.2551 14.3695 21.1265 14.3092 20.9942C14.2492 20.8616 14.2192 20.7174 14.2192 20.5614C14.2192 20.4057 14.2492 20.2616 14.3092 20.129C14.3695 19.9965 14.4737 19.8679 14.6217 19.7433L22.7051 12.9397C22.9737 12.7136 23.3024 12.6006 23.6913 12.6006C24.0802 12.6006 24.409 12.7136 24.6776 12.9397C24.9459 13.1658 25.0801 13.4425 25.0801 13.7698C25.0801 14.0971 24.9459 14.3737 24.6776 14.5996L17.5942 20.5614Z" fill="white"/>
</g>
</svg>
