<svg width="79" height="28" viewBox="0 0 79 28" fill="none" xmlns="http://www.w3.org/2000/svg">
<path fill-rule="evenodd" clip-rule="evenodd" d="M78.0514 22.9462V27.9773H68.7415V0.000579834H73.7555V22.9462H78.0514ZM38.2731 13.7157C37.8848 13.9056 37.4807 13.9998 37.0824 13.9998V5.00116H37.1095C37.5036 4.99688 40.456 5.11823 40.456 9.45266C40.456 11.717 39.4509 13.1446 38.2731 13.7157ZM23.5818 19.2419L24.9681 7.28086L26.4086 19.2419H23.5818ZM67.8671 5.10309V0.00343463H53.6731L51.3346 17.0428L49.026 0.00343463H43.9078L44.4803 4.55058C43.8878 3.38703 41.7934 0.00343463 37.1835 0.00343463C37.1521 0.00200695 32.0553 0.00343463 32.0553 0.00343463L32.0381 24.8421L28.3076 0.00343463L21.6032 0.00200695L17.7414 25.7359L17.7428 0.00343463H11.3268L9.01685 14.4601L6.76112 0.00343463H0.342285V27.9816H5.39911V14.4972L7.6991 27.9816H10.3831L12.6517 14.4972V27.9816H22.3956L22.9867 23.6814H26.9071L27.4981 27.9816L37.0635 27.9887H37.0707V27.9816H37.0778H37.0821V18.9016L38.2557 18.7303L40.6827 27.9887H40.6913H45.6253H45.6325L45.631 27.9816H45.6396H45.6453L42.4573 17.1313C44.072 15.9363 45.8966 12.9039 45.4126 10.0043V10.0029C45.4169 10.0371 48.4179 28.0002 48.4179 28.0002L54.3013 27.9816L58.3245 2.62322V27.9816H67.8671V22.9533H63.3371V16.5359H67.8671V11.4263H63.3371V5.10309H67.8671Z" fill="white"/>
<path fill-rule="evenodd" clip-rule="evenodd" d="M76.1213 -0.000152588H76.7366L77.0836 2.29888H77.0921L77.4391 -0.000152588H78.0515V3.33109H77.6789V0.66906H77.6675L77.2635 3.33109H76.9094L76.5039 0.66906H76.4939V3.33109H76.1213V-0.000152588ZM74.9225 0.577691H74.3286V-0.000152588H75.8933V0.577691H75.3123V3.33109H74.9225V0.577691Z" fill="white"/>
</svg>
